<?xml version="1.0" standalone="no"?><!DOCTYPE svg PUBLIC "-//W3C//DTD SVG 1.1//EN" "http://www.w3.org/Graphics/SVG/1.1/DTD/svg11.dtd"><svg t="1733660145234" class="icon" viewBox="0 0 1024 1024" version="1.1" xmlns="http://www.w3.org/2000/svg" p-id="6308" xmlns:xlink="http://www.w3.org/1999/xlink" width="16" height="16"><path d="M281.92 224h66.112v574.4H260.16V329.408c-34.624 32.96-78.976 57.088-132.16 72.32V314.88c25.792-6.4 52.352-17.664 81.408-33.792 28.992-17.664 53.12-36.16 72.512-57.088z m251.456 161.728c16.128 0 30.592 5.632 42.688 17.664a58.88 58.88 0 0 1 17.728 42.624c0 16.128-6.4 30.592-17.728 42.624a61.056 61.056 0 0 1-42.688 16.896c-17.728 0-31.424-5.632-41.92-16.896a58.304 58.304 0 0 1-17.728-42.624c0-16.896 5.632-31.36 17.728-42.624 10.496-12.032 24.192-17.664 41.92-17.664z m0 294.4c16.128 0 30.592 5.632 42.688 17.728a58.88 58.88 0 0 1 17.728 42.624c0 16.064-6.4 30.528-17.728 42.624a61.056 61.056 0 0 1-42.688 16.896c-17.728 0-31.424-5.632-41.92-16.896a58.304 58.304 0 0 1-17.728-42.624c0-16.896 5.632-31.36 17.728-42.624 10.496-12.096 24.192-17.728 41.92-17.728zM829.888 224H896v574.4h-87.872V329.408c-34.624 32.96-78.976 57.088-132.16 72.32V314.88c25.792-6.4 52.416-17.664 81.408-33.792 29.056-17.664 53.184-36.16 72.512-57.088z" p-id="6309" fill="#cdcdcd"></path></svg>