<?xml version="1.0" standalone="no"?><!DOCTYPE svg PUBLIC "-//W3C//DTD SVG 1.1//EN" "http://www.w3.org/Graphics/SVG/1.1/DTD/svg11.dtd"><svg t="1732545374711" class="icon" viewBox="0 0 1024 1024" version="1.1" xmlns="http://www.w3.org/2000/svg" p-id="10849" width="16" height="16" xmlns:xlink="http://www.w3.org/1999/xlink"><path d="M852.77696 171.24352C727.27552 45.74208 473.04704 96.6144 284.84608 284.84608 96.60416 473.04704 45.74208 727.27552 171.24352 852.77696c125.46048 125.46048 379.72992 74.62912 567.95136-113.57184 188.20096-188.22144 239.04256-442.50112 113.58208-567.9616z m-675.4304 434.46272c18.83136-94.16704 74.12736-191.00672 155.76064-272.56832 101.70368-101.74464 227.59424-162.46784 336.77312-162.46784 37.62176 0 89.89696 8.13056 129.76128 44.5952-75.30496 129.73056-189.06112 227.072-321.09568 281.73312-118.74304 49.17248-222.59712 133.03808-297.19552 243.70176-12.544-38.12352-14.20288-84.0192-4.00384-134.99392z m513.59744 85.23776c-101.70368 101.70368-227.59424 162.39616-336.7936 162.39616-38.84032 0-93.39904-8.42752-133.67296-48.00512 65.66912-109.62944 163.87072-195.39968 284.20096-245.22752 140.40064-58.1632 255.90784-156.3648 336.26112-281.43616 39.44448 109.80352-18.44224 280.66816-149.99552 412.27264z" p-id="10850" fill="#cdcdcd"></path></svg>