<?xml version="1.0" standalone="no"?><!DOCTYPE svg PUBLIC "-//W3C//DTD SVG 1.1//EN" "http://www.w3.org/Graphics/SVG/1.1/DTD/svg11.dtd"><svg t="1639304338268" class="icon" viewBox="0 0 1024 1024" version="1.1" xmlns="http://www.w3.org/2000/svg" p-id="6659" width="16" height="16" xmlns:xlink="http://www.w3.org/1999/xlink"><defs><style type="text/css"></style></defs><path d="M107.978297 0.00032h807.531982C974.872579 0.00032 1022.976512 48.104253 1023.488256 107.978297V916.022023a108.009961 108.009961 0 0 1-107.977977 107.977977H107.978297A108.425753 108.425753 0 0 1 0.00032 915.510279V107.978297A107.658137 107.658137 0 0 1 107.978297 0.00032zM51.174717 915.510279c0 31.216382 25.587198 56.80358 56.80358 56.80358h807.531982c31.216382 0 56.80358-25.587198 56.80358-56.80358V107.978297c0-31.216382-25.587198-56.291836-56.80358-56.80358H107.978297C76.761915 51.174717 51.174717 76.761915 51.174717 107.978297v807.531982z m786.038735-260.47768c14.328831-1.023488 26.610686 9.211391 27.634174 23.540223s-9.211391 26.610686-23.540222 27.634174h-200.091892c-14.328831 1.023488-26.610686-9.211391-27.634174-23.540223s9.211391-26.610686 23.540222-27.634174h200.091892z m0-388.925416c14.328831-1.023488 26.610686 9.211391 27.634174 23.540223s-9.211391 26.610686-23.540222 27.634174h-200.091892c-14.328831 1.023488-26.610686-9.211391-27.634174-23.540222s9.211391-26.610686 23.540222-27.634175h200.091892z m0 491.27421c14.328831-1.023488 26.610686 9.211391 27.634174 23.540222s-9.211391 26.610686-23.540222 27.634174h-200.091892c-14.328831 1.023488-26.610686-9.211391-27.634174-23.540222s9.211391-26.610686 23.540222-27.634174h200.091892zM266.107183 189.345588c-1.023488-14.328831 9.211391-26.610686 23.540223-27.634174s26.610686 9.211391 27.634174 23.540222V275.830319h85.972987c14.328831 0 25.587198 11.258367 25.587198 25.587198s-11.258367 25.587198-25.587198 25.587198H317.28158v85.972987c1.023488 14.328831-9.211391 26.610686-23.540222 27.634174s-26.610686-9.211391-27.634175-23.540222V326.492971H180.134197c-14.328831 0-25.587198-11.258367-25.587199-25.587198s11.258367-25.587198 25.587199-25.587198H266.107183V189.345588z m86.484731 444.193764a25.331326 25.331326 0 0 1 36.333822 0c10.234879 9.723135 10.234879 26.098942 0 36.333822l-60.897532 60.897532 60.897532 60.385789c10.234879 10.234879 9.723135 26.610686 0 36.333821a25.779102 25.779102 0 0 1-36.333822 0L291.694382 766.592784l-60.897532 60.897532a25.331326 25.331326 0 0 1-36.333822 0 25.331326 25.331326 0 0 1 0-36.333821L255.872304 730.258962l-61.409276-60.897532c-10.234879-10.234879-10.234879-26.098942 0-36.333822s26.098942-10.234879 36.333822 0l0.511744 0.511744 60.385788 60.897533 60.897532-60.897533z" p-id="6660" fill="#bfbfbf"></path></svg>