<?xml version="1.0" standalone="no"?><!DOCTYPE svg PUBLIC "-//W3C//DTD SVG 1.1//EN" "http://www.w3.org/Graphics/SVG/1.1/DTD/svg11.dtd"><svg t="1705390211527" class="icon" viewBox="0 0 1024 1024" version="1.1" xmlns="http://www.w3.org/2000/svg" p-id="7216" xmlns:xlink="http://www.w3.org/1999/xlink" width="16" height="16"><path d="M927.744 448H96.256c-17.92 0-31.744-14.336-31.744-31.744s14.336-31.744 31.744-31.744h832c17.92 0 31.744 14.336 31.744 31.744s-14.336 31.744-32.256 31.744z m0 192H96.256c-17.92 0-31.744-14.336-31.744-31.744s14.336-31.744 31.744-31.744h832c17.92 0 31.744 14.336 31.744 31.744s-14.336 31.744-32.256 31.744zM512 352.256c-8.704 0-16.384-3.584-22.528-9.216l-128-128c-12.288-12.8-11.776-32.768 0.512-45.056 12.288-12.288 32.256-12.288 44.544 0L512 274.944 617.472 168.96c12.288-12.8 32.768-12.8 45.056-0.512s12.8 32.768 0.512 45.056l-0.512 0.512-128 128c-6.144 6.656-14.336 10.24-22.528 10.24z" fill="#cdcdcd" p-id="7217"></path><path d="M512 352.256c-17.92 0-31.744-14.336-31.744-31.744V96.256c0-17.92 14.336-31.744 32.256-31.744 17.408 0 31.744 14.336 31.744 31.744v224.256c-0.512 17.408-14.848 31.744-32.256 31.744z m-128 512c-17.92 0-32.256-14.336-32.256-31.744 0-8.704 3.584-16.384 9.216-22.528l128-128c12.288-12.288 32.768-12.288 45.056 0l128 128c12.288 12.8 11.776 32.768-0.512 45.056-12.288 12.288-32.256 12.288-44.544 0L512 749.056 406.528 855.04c-6.144 5.632-13.824 9.216-22.528 9.216z" fill="#cdcdcd" p-id="7218"></path><path d="M512 960c-17.92 0-31.744-14.336-31.744-31.744v-224.256c0-17.92 14.336-31.744 31.744-31.744 17.92 0 31.744 14.336 31.744 31.744v224.256c0.512 17.408-13.824 31.744-31.744 31.744z" fill="#cdcdcd" p-id="7219"></path></svg>