<?xml version="1.0" standalone="no"?><!DOCTYPE svg PUBLIC "-//W3C//DTD SVG 1.1//EN" "http://www.w3.org/Graphics/SVG/1.1/DTD/svg11.dtd"><svg class="icon" width="16px" height="16.00px" viewBox="0 0 1024 1024" version="1.1" xmlns="http://www.w3.org/2000/svg"><path d="M611.2 205.7c-6.8-6.8-15.9-10.6-25.5-10.6H165.6c-25.6 0-46.4 20.8-46.4 46.4v671.2c0 25.6 20.8 46.4 46.4 46.4h570.1c25.6 0 46.4-20.8 46.4-46.4V392c0-9.5-3.8-18.7-10.5-25.4L611.2 205.7z m98.9 681.4H191.2v-620h379.6l139.3 139.7v480.3z" fill="#cdcdcd" /><path d="M897 236L736.7 75.1c-6.8-6.8-15.9-10.6-25.5-10.6H291c-19.9 0-36 16.1-36 36s16.1 36 36 36h405.2l139.3 139.7V782c0 19.9 16.1 36 36 36s36-16.1 36-36V261.4c0-9.5-3.8-18.7-10.5-25.4zM597 760.8H287.4c-19.9 0-36 16.1-36 36s16.1 36 36 36H597c19.9 0 36-16.1 36-36s-16.1-36-36-36z" fill="#cdcdcd" /><path d="M478 342.7c0-19.9-16.1-36-36-36s-36 16.1-36 36v118.8H287.2c-19.9 0-36 16.1-36 36s16.1 36 36 36H406v118.8c0 19.9 16.1 36 36 36s36-16.1 36-36V533.5h118.8c19.9 0 36-16.1 36-36s-16.1-36-36-36H478V342.7z" fill="#cdcdcd" /></svg>