<?xml version="1.0" standalone="no"?><!DOCTYPE svg PUBLIC "-//W3C//DTD SVG 1.1//EN" "http://www.w3.org/Graphics/SVG/1.1/DTD/svg11.dtd"><svg t="1639403719365" class="icon" viewBox="0 0 1025 1024" version="1.1" xmlns="http://www.w3.org/2000/svg" p-id="8316" width="16.015625" height="16" xmlns:xlink="http://www.w3.org/1999/xlink"><defs><style type="text/css"></style></defs><path d="M467.985218 937.525717c0.122866 0.124914 0.24778 0.248804 0.372694 0.370646 11.174684 10.873662 25.852081 16.831651 41.412066 16.831651 0.277473 0 0.554946-0.001024 0.832419-0.005119 15.837458-0.217064 30.643864-6.574368 41.702849-17.905707l334.741901-339.769178c9.525205-9.667525 9.408482-25.226487-0.259043-34.750668-9.666501-9.524181-25.227511-9.408482-34.750668 0.259043l-315.80719 320.551874L536.230246 88.475979c0-13.5716-11.001648-24.573248-24.573248-24.573248-13.5716 0-24.573248 11.001648-24.573248 24.573248l0 798.397108L166.360888 561.132161c-9.52111-9.670597-25.080071-9.791415-34.750668-0.269282-9.670597 9.52111-9.791415 25.080071-0.270306 34.750668L467.985218 937.525717z" p-id="8317" fill="#bfbfbf"></path></svg>