<?xml version="1.0" standalone="no"?><!DOCTYPE svg PUBLIC "-//W3C//DTD SVG 1.1//EN" "http://www.w3.org/Graphics/SVG/1.1/DTD/svg11.dtd"><svg t="1639302811503" class="icon" viewBox="0 0 1024 1024" version="1.1" xmlns="http://www.w3.org/2000/svg" p-id="2287" width="16" height="16" xmlns:xlink="http://www.w3.org/1999/xlink"><defs><style type="text/css"></style></defs><path d="M745.016889 314.311111l-120.661333-120.661333 60.302222-60.302222a28.444444 28.444444 0 0 1 40.277333 0l80.440889 80.384a28.444444 28.444444 0 0 1 0 40.220444l-60.302222 60.359111z m-40.220445 40.220445L356.181333 703.146667a56.888889 56.888889 0 0 1-32.199111 16.099555l-122.026666 17.464889 17.464888-122.026667a56.888889 56.888889 0 0 1 16.099556-32.199111l348.615111-348.615111 120.661333 120.661334zM483.555556 682.666667h227.555555a28.444444 28.444444 0 1 1 0 56.888889h-227.555555a28.444444 28.444444 0 1 1 0-56.888889z m-227.555556 113.777777h512a28.444444 28.444444 0 1 1 0 56.888889h-512a28.444444 28.444444 0 1 1 0-56.888889z" fill="#bfbfbf" p-id="2288"></path></svg>