<?xml version="1.0" standalone="no"?><!DOCTYPE svg PUBLIC "-//W3C//DTD SVG 1.1//EN" "http://www.w3.org/Graphics/SVG/1.1/DTD/svg11.dtd"><svg t="1639303814527" class="icon" viewBox="0 0 1024 1024" version="1.1" xmlns="http://www.w3.org/2000/svg" p-id="9082" width="16" height="16" xmlns:xlink="http://www.w3.org/1999/xlink"><defs><style type="text/css"></style></defs><path d="M845.9264 714.24H312.9344c-15.6672 0-28.4672 12.6976-28.4672 28.4672 0 15.6672 12.6976 28.4672 28.4672 28.4672h528.9984l-87.3472 87.3472c-11.0592 11.0592-11.0592 29.0816 0 40.2432s29.0816 11.0592 40.2432 0L928.768 764.8256c13.312-13.312 13.312-34.9184 0-48.2304l-136.192-136.192c-11.0592-11.0592-29.0816-11.0592-40.2432 0-11.0592 11.0592-11.0592 29.0816 0 40.2432l93.5936 93.5936zM178.0736 259.1744h532.992c15.6672 0 28.4672 12.6976 28.4672 28.4672s-12.6976 28.4672-28.4672 28.4672H182.0672l87.3472 87.3472c11.0592 11.0592 11.0592 29.0816 0 40.2432s-29.0816 11.0592-40.2432 0L95.3344 309.76c-13.312-13.312-13.312-34.9184 0-48.2304l136.192-136.192c11.0592-11.0592 29.0816-11.0592 40.2432 0 11.0592 11.0592 11.0592 29.0816 0 40.2432l-93.696 93.5936z" fill="#bfbfbf" p-id="9083"></path></svg>