<?xml version="1.0" standalone="no"?><!DOCTYPE svg PUBLIC "-//W3C//DTD SVG 1.1//EN" "http://www.w3.org/Graphics/SVG/1.1/DTD/svg11.dtd"><svg t="1734675251432" class="icon" viewBox="0 0 1024 1024" version="1.1" xmlns="http://www.w3.org/2000/svg" p-id="51871" xmlns:xlink="http://www.w3.org/1999/xlink" width="16" height="16"><path d="M896 544.526c17.673 0 32 14.327 32 32 0 37.575-6.55 78.207-19.64 117.493-14.805 44.432-37.486 85.938-67.927 121.93C768.053 901.521 657.922 950 512 950s-256.053-48.478-328.433-134.052c-30.441-35.991-53.122-77.497-67.926-121.929C102.55 654.733 96 614.101 96 576.526c0-17.673 14.327-32 32-32 17.673 0 32 14.327 32 32 0 30.72 5.45 64.52 16.36 97.262 12.306 36.935 31.062 71.26 56.073 100.83 28.02 33.128 63.416 59.8 106.46 78.746C387.292 874.669 444.854 886 512 886s124.707-11.33 173.108-32.636c43.043-18.947 78.44-45.618 106.46-78.746 25.01-29.57 43.766-63.895 56.073-100.83C858.55 641.045 864 607.246 864 576.526c0-17.673 14.327-32 32-32zM534.255 84.006l0.377 0.371 256 256.105c12.494 12.5 12.49 32.761-0.01 45.255-12.374 12.37-32.355 12.49-44.877 0.362l-0.377-0.371-201.202-201.284v520.137c0 17.673-14.326 32-32 32-17.496 0-31.713-14.042-31.995-31.47l-0.005-0.53V184.11L278.632 385.728c-12.37 12.374-32.351 12.502-44.877 0.38l-0.378-0.37c-12.374-12.37-12.502-32.352-0.38-44.878l0.37-0.378 256-256.105c12.374-12.378 32.363-12.501 44.888-0.371z" p-id="51872" fill="#cdcdcd"></path></svg>