<?xml version="1.0" standalone="no"?><!DOCTYPE svg PUBLIC "-//W3C//DTD SVG 1.1//EN" "http://www.w3.org/Graphics/SVG/1.1/DTD/svg11.dtd"><svg t="1733660368469" class="icon" viewBox="0 0 1024 1024" version="1.1" xmlns="http://www.w3.org/2000/svg" p-id="4450" xmlns:xlink="http://www.w3.org/1999/xlink" width="16" height="16"><path d="M0 0h1024v1024H0z" fill="#cdcdcd" fill-opacity="0" p-id="4451"></path><path d="M160 682.666667v138.666666H298.666667v85.333334H96a21.333333 21.333333 0 0 1-21.333333-21.333334V682.666667h85.333333z m789.333333-128v330.666666a21.333333 21.333333 0 0 1-21.333333 21.333334H597.333333v-85.333334l206.250667-0.042666-204.416-204.458667 60.330667-60.330667 204.501333 204.458667V554.666667h85.333333zM426.666667 117.333333v85.333334H220.373333l204.458667 204.501333-60.330667 60.330667L160 263.04V469.333333h-85.333333V138.666667a21.333333 21.333333 0 0 1 21.333333-21.333334H426.666667z m501.333333 0a21.333333 21.333333 0 0 1 21.333333 21.333334V341.333333h-85.333333V202.666667H725.333333v-85.333334h202.666667z" fill="#cdcdcd" p-id="4452"></path></svg>