<?xml version="1.0" standalone="no"?><!DOCTYPE svg PUBLIC "-//W3C//DTD SVG 1.1//EN" "http://www.w3.org/Graphics/SVG/1.1/DTD/svg11.dtd"><svg t="1695310537535" class="icon" viewBox="0 0 1024 1024" version="1.1" xmlns="http://www.w3.org/2000/svg" p-id="16998" xmlns:xlink="http://www.w3.org/1999/xlink" width="16" height="16"><path d="M576 213.333333c0 12.8 8.533333 21.333333 21.333333 21.333334h162.133334l-202.666667 202.666666c-8.533333 8.533333-8.533333 21.333333 0 29.866667 8.533333 8.533333 21.333333 8.533333 29.866667 0l202.666666-202.666667V426.666667c0 12.8 8.533333 21.333333 21.333334 21.333333s21.333333-8.533333 21.333333-21.333333V213.333333c0-12.8-8.533333-21.333333-21.333333-21.333333H597.333333c-12.8 0-21.333333 8.533333-21.333333 21.333333z m-138.666667 343.466667L234.666667 759.466667V597.333333c0-12.8-8.533333-21.333333-21.333334-21.333333s-21.333333 8.533333-21.333333 21.333333v213.333334c0 12.8 8.533333 21.333333 21.333333 21.333333h213.333334c12.8 0 21.333333-8.533333 21.333333-21.333333s-8.533333-21.333333-21.333333-21.333334h-162.133334l202.666667-202.666666c8.533333-8.533333 8.533333-21.333333 0-29.866667-6.4-8.533333-21.333333-8.533333-29.866667 0z" fill="#cdcdcd" p-id="16999"></path></svg>