<?xml version="1.0" standalone="no"?><!DOCTYPE svg PUBLIC "-//W3C//DTD SVG 1.1//EN" "http://www.w3.org/Graphics/SVG/1.1/DTD/svg11.dtd"><svg t="1704372180131" class="icon" viewBox="0 0 1024 1024" version="1.1" xmlns="http://www.w3.org/2000/svg" p-id="16619" xmlns:xlink="http://www.w3.org/1999/xlink" width="16" height="16"><path d="M64 127.712C64 92.512 92.8 64 127.712 64H896.32C931.488 64 960 92.8 960 127.712V896.32c0 35.2-28.8 63.712-63.712 63.712H127.68C92.512 960 64 931.2 64 896.288V127.68z m64 32.32v703.936A32 32 0 0 0 160 896h704a32 32 0 0 0 32-32V160a32 32 0 0 0-32-32H160a32 32 0 0 0-32 32z m226.88 640c-57.728 0-88.512-53.12-97.6-84.48A25.952 25.952 0 0 1 307.2 701.12c0.096 0.32 14.496 47.04 47.744 47.04 21.76 0 32.416-28.928 33.824-33.024 3.808-15.68 38.24-158.272 64.896-266.368h-77.984a25.952 25.952 0 1 1 0-51.904h90.816c8.544-34.208 15.104-59.744 17.6-68.032l2.08-7.072c12.256-41.92 37.792-129.12 105.824-129.12 60.096 0 80.576 59.84 83.008 91.456a25.952 25.952 0 0 1-51.776 4.096c-0.16-2.016-4.192-43.616-31.232-43.616-29.12 0-48 64.32-56 91.776l-2.208 7.36c-1.952 6.624-6.944 25.984-13.76 53.12h63.328a25.952 25.952 0 1 1 0 51.936h-76.224a60869.312 60869.312 0 0 0-68.48 280.768c-7.744 26.176-34.08 70.496-83.712 70.496z m384.96-66.912c-12.064 0-20.512-5.632-28.576-15.68l-43.456-57.152-43.424 57.12c-7.232 8.864-15.68 15.68-26.56 15.68-16.064 0-28.544-11.232-28.544-26.56 0-8.416 3.2-14.848 8.448-20.896l55.104-65.152-50.272-57.92c-6.848-8.064-10.048-15.296-10.048-23.36 0-17.28 12.864-28.16 28.16-28.16 12.064 0 20.48 5.664 28.544 15.68l39.808 53.12 40.64-53.088c7.264-8.864 15.68-15.68 26.56-15.68 16.096 0 28.544 11.232 28.544 26.56 0 8.416-3.616 14.88-8.416 20.896L704 619.648l53.888 61.984c6.848 8.032 10.08 15.296 10.08 23.328 0 17.28-12.864 28.16-28.16 28.16z" fill="#cdcdcd" p-id="16620"></path></svg>