<?xml version="1.0" encoding="UTF-8"?>
<!DOCTYPE svg PUBLIC "-//W3C//DTD SVG 1.1//EN" "http://www.w3.org/Graphics/SVG/1.1/DTD/svg11.dtd">
<svg xmlns="http://www.w3.org/2000/svg" version="1.1" width="26px" height="26px" style="shape-rendering:geometricPrecision; text-rendering:geometricPrecision; image-rendering:optimizeQuality; fill-rule:evenodd; clip-rule:evenodd" xmlns:xlink="http://www.w3.org/1999/xlink">
<g><path style="opacity:0.063" fill="#0c0c0c" d="M 14.5,-0.5 C 16.1667,-0.5 17.8333,-0.5 19.5,-0.5C 19.5,0.166667 19.8333,0.5 20.5,0.5C 20.1667,1.16667 19.8333,1.83333 19.5,2.5C 18.391,2.44312 17.391,2.10978 16.5,1.5C 15.5084,1.67158 14.8417,1.33825 14.5,0.5C 14.5,0.166667 14.5,-0.166667 14.5,-0.5 Z"/></g>
<g><path style="opacity:0.555" fill="#191919" d="M 14.5,0.5 C 14.8417,1.33825 15.5084,1.67158 16.5,1.5C 16.1667,2.16667 15.8333,2.83333 15.5,3.5C 14.5041,3.41423 13.6708,3.74756 13,4.5C 12.2917,3.61947 11.4584,2.9528 10.5,2.5C 11.287,0.895779 12.6203,0.229113 14.5,0.5 Z"/></g>
<g><path style="opacity:0.945" fill="#1a1a1a" d="M 20.5,0.5 C 23.2974,0.966592 24.6308,2.63326 24.5,5.5C 23.609,4.89022 22.609,4.55688 21.5,4.5C 20.8333,3.83333 20.1667,3.16667 19.5,2.5C 19.8333,1.83333 20.1667,1.16667 20.5,0.5 Z"/></g>
<g><path style="opacity:0.707" fill="#090909" d="M 10.5,2.5 C 11.4584,2.9528 12.2917,3.61947 13,4.5C 13.6708,3.74756 14.5041,3.41423 15.5,3.5C 15.1667,4.16667 14.8333,4.83333 14.5,5.5C 14.2648,6.09674 13.7648,6.43007 13,6.5C 11.9889,5.94442 11.1556,5.27775 10.5,4.5C 9.83333,4.5 9.16667,4.5 8.5,4.5C 8.5,3.16667 9.16667,2.5 10.5,2.5 Z"/></g>
<g><path style="opacity:0.818" fill="#171717" d="M 15.5,3.5 C 17.8552,4.52178 19.5218,6.18844 20.5,8.5C 19.8333,8.83333 19.1667,9.16667 18.5,9.5C 17.7611,9.63101 17.0944,9.46434 16.5,9C 15.9152,7.69762 15.2485,6.53095 14.5,5.5C 14.8333,4.83333 15.1667,4.16667 15.5,3.5 Z"/></g>
<g><path style="opacity:0.647" fill="#1f1f1f" d="M 8.5,4.5 C 9.16667,4.5 9.83333,4.5 10.5,4.5C 8.91903,6.30256 6.91903,7.63589 4.5,8.5C 4.5,7.16667 4.5,5.83333 4.5,4.5C 5.7054,3.31434 7.03874,3.31434 8.5,4.5 Z"/></g>
<g><path style="opacity:0.79" fill="#0b0b0b" d="M 21.5,4.5 C 22.609,4.55688 23.609,4.89022 24.5,5.5C 24.8333,5.5 25.1667,5.5 25.5,5.5C 25.5,7.16667 25.5,8.83333 25.5,10.5C 25.1667,10.5 24.8333,10.5 24.5,10.5C 23.8333,10.5 23.1667,10.5 22.5,10.5C 22.5774,9.25025 23.244,8.41691 24.5,8C 22.9443,7.27985 21.9443,6.11318 21.5,4.5 Z"/></g>
<g><path style="opacity:0.966" fill="#060606" d="M 4.5,4.5 C 4.5,5.83333 4.5,7.16667 4.5,8.5C 2.80072,8.52709 1.46739,9.19376 0.5,10.5C 0.166667,10.5 -0.166667,10.5 -0.5,10.5C -0.5,10.1667 -0.5,9.83333 -0.5,9.5C 0.316435,7.85639 1.64977,6.68972 3.5,6C 2.2881,4.89318 2.62143,4.39318 4.5,4.5 Z"/></g>
<g><path style="opacity:0.438" fill="#030303" d="M 12.5,8.5 C 12.5,8.83333 12.5,9.16667 12.5,9.5C 10.302,9.12012 8.63535,9.78679 7.5,11.5C 6.83333,11.5 6.5,11.8333 6.5,12.5C 6.16667,12.5 5.83333,12.5 5.5,12.5C 6.44458,9.01319 8.77791,7.67986 12.5,8.5 Z"/></g>
<g><path style="opacity:0.729" fill="#1f1f1f" d="M 12.5,9.5 C 11.7375,10.2679 10.7375,10.7679 9.5,11C 10.4158,11.2784 11.0825,11.7784 11.5,12.5C 10.391,12.5569 9.39105,12.8902 8.5,13.5C 8.67158,12.5084 8.33825,11.8417 7.5,11.5C 8.63535,9.78679 10.302,9.12012 12.5,9.5 Z"/></g>
<g><path style="opacity:0.698" fill="#0a0a0a" d="M 12.5,8.5 C 13.8333,9.16667 14.8333,10.1667 15.5,11.5C 14.0687,12.7804 13.4021,14.4471 13.5,16.5C 12.8333,16.5 12.1667,16.5 11.5,16.5C 12.6857,15.0387 12.6857,13.7054 11.5,12.5C 11.0825,11.7784 10.4158,11.2784 9.5,11C 10.7375,10.7679 11.7375,10.2679 12.5,9.5C 12.5,9.16667 12.5,8.83333 12.5,8.5 Z"/></g>
<g><path style="opacity:0.58" fill="#0a0a0a" d="M 20.5,8.5 C 21.3382,8.84171 21.6716,9.50838 21.5,10.5C 20.6236,10.3691 19.9569,10.7025 19.5,11.5C 19.8457,12.6956 20.3457,12.6956 21,11.5C 21.5133,12.5266 22.0133,13.5266 22.5,14.5C 22.2178,15.7777 21.5511,16.7777 20.5,17.5C 19.8333,17.5 19.5,17.8333 19.5,18.5C 19.1667,18.5 18.8333,18.5 18.5,18.5C 18.2267,16.549 18.8934,15.049 20.5,14C 18.8934,12.951 18.2267,11.451 18.5,9.5C 19.1667,9.16667 19.8333,8.83333 20.5,8.5 Z"/></g>
<g><path style="opacity:0.975" fill="#171717" d="M 4.5,8.5 C 3.62896,10.0582 2.62896,11.7249 1.5,13.5C 0.596028,14.209 0.262695,15.209 0.5,16.5C 0.166667,16.5 -0.166667,16.5 -0.5,16.5C -0.5,14.8333 -0.5,13.1667 -0.5,11.5C 0.166667,11.5 0.5,11.1667 0.5,10.5C 1.46739,9.19376 2.80072,8.52709 4.5,8.5 Z"/></g>
<g><path style="opacity:0.718" fill="#191919" d="M 21.5,10.5 C 21.8333,10.5 22.1667,10.5 22.5,10.5C 23.1667,10.5 23.8333,10.5 24.5,10.5C 24.7709,12.3797 24.1042,13.713 22.5,14.5C 22.0133,13.5266 21.5133,12.5266 21,11.5C 20.3457,12.6956 19.8457,12.6956 19.5,11.5C 19.9569,10.7025 20.6236,10.3691 21.5,10.5 Z"/></g>
<g><path style="opacity:0.778" fill="#191919" d="M 15.5,11.5 C 16.8333,13.5 16.8333,15.5 15.5,17.5C 14.5084,17.6716 13.8417,17.3382 13.5,16.5C 13.4021,14.4471 14.0687,12.7804 15.5,11.5 Z"/></g>
<g><path style="opacity:0.843" fill="#080808" d="M 5.5,12.5 C 5.83333,12.5 6.16667,12.5 6.5,12.5C 6.17798,14.7224 6.84464,16.5557 8.5,18C 8.27155,18.3988 7.93822,18.5654 7.5,18.5C 4.65109,17.0804 3.98442,15.0804 5.5,12.5 Z"/></g>
<g><path style="opacity:0.688" fill="#101010" d="M 7.5,11.5 C 8.33825,11.8417 8.67158,12.5084 8.5,13.5C 8.55688,14.609 8.89022,15.609 9.5,16.5C 9.91753,17.2216 10.5842,17.7216 11.5,18C 10.5842,18.2784 9.91753,18.7784 9.5,19.5C 8.50838,19.6716 7.84171,19.3382 7.5,18.5C 7.93822,18.5654 8.27155,18.3988 8.5,18C 6.84464,16.5557 6.17798,14.7224 6.5,12.5C 6.5,11.8333 6.83333,11.5 7.5,11.5 Z"/></g>
<g><path style="opacity:0.792" fill="#2d2d2d" d="M 1.5,13.5 C 2.94183,14.8195 3.60849,16.4862 3.5,18.5C 2.83333,18.5 2.5,18.8333 2.5,19.5C 1.83333,18.5 1.16667,17.5 0.5,16.5C 0.262695,15.209 0.596028,14.209 1.5,13.5 Z"/></g>
<g><path style="opacity:0.878" fill="#272727" d="M 9.5,16.5 C 10.1667,16.5 10.8333,16.5 11.5,16.5C 12.1667,16.5 12.8333,16.5 13.5,16.5C 13.8417,17.3382 14.5084,17.6716 15.5,17.5C 13.9148,19.9817 11.9148,20.6484 9.5,19.5C 9.91753,18.7784 10.5842,18.2784 11.5,18C 10.5842,17.7216 9.91753,17.2216 9.5,16.5 Z"/></g>
<g><path style="opacity:0.638" fill="#090909" d="M 0.5,16.5 C 1.16667,17.5 1.83333,18.5 2.5,19.5C 2.83333,19.5 3.16667,19.5 3.5,19.5C 3.16667,20.1667 2.83333,20.8333 2.5,21.5C 1.5,20.8333 0.5,20.1667 -0.5,19.5C -0.5,18.8333 -0.5,18.1667 -0.5,17.5C 0.166667,17.5 0.5,17.1667 0.5,16.5 Z"/></g>
<g><path style="opacity:0.292" fill="#202020" d="M 20.5,17.5 C 21.5735,18.2506 21.7401,19.2506 21,20.5C 19.6412,21.365 18.4745,22.365 17.5,23.5C 17.5,22.1667 17.5,20.8333 17.5,19.5C 17.5,18.8333 17.8333,18.5 18.5,18.5C 18.8333,19.8333 19.1667,19.8333 19.5,18.5C 19.5,17.8333 19.8333,17.5 20.5,17.5 Z"/></g>
<g><path style="opacity:0.727" fill="#161616" d="M 3.5,18.5 C 4.92203,19.925 6.5887,20.925 8.5,21.5C 7.89022,22.391 7.55688,23.391 7.5,24.5C 7.5,24.8333 7.5,25.1667 7.5,25.5C 6.83333,25.5 6.16667,25.5 5.5,25.5C 3.63694,24.2739 2.63694,22.9406 2.5,21.5C 2.83333,20.8333 3.16667,20.1667 3.5,19.5C 3.5,19.1667 3.5,18.8333 3.5,18.5 Z"/></g>
<g><path style="opacity:0.778" fill="#1d1d1d" d="M 8.5,21.5 C 9.5,21.8333 10.1667,22.5 10.5,23.5C 12.0502,23.4921 13.7168,23.8254 15.5,24.5C 15.5,24.8333 15.5,25.1667 15.5,25.5C 13.1667,25.5 10.8333,25.5 8.5,25.5C 8.5,24.8333 8.16667,24.5 7.5,24.5C 7.55688,23.391 7.89022,22.391 8.5,21.5 Z"/></g>
<g><path style="opacity:1" fill="#0c0c0c" d="M 17.5,19.5 C 17.5,20.8333 17.5,22.1667 17.5,23.5C 17.1583,24.3382 16.4916,24.6716 15.5,24.5C 13.7168,23.8254 12.0502,23.4921 10.5,23.5C 11.684,21.5901 13.184,21.2568 15,22.5C 15.2355,20.8807 16.0689,19.8807 17.5,19.5 Z"/></g>
</svg>
