<?xml version="1.0" standalone="no"?><!DOCTYPE svg PUBLIC "-//W3C//DTD SVG 1.1//EN" "http://www.w3.org/Graphics/SVG/1.1/DTD/svg11.dtd"><svg t="1639303673517" class="icon" viewBox="0 0 1024 1024" version="1.1" xmlns="http://www.w3.org/2000/svg" p-id="8015" width="16" height="16" xmlns:xlink="http://www.w3.org/1999/xlink"><defs><style type="text/css"></style></defs><path d="M920.241 335.746a442.185 442.185 0 0 0-57.246-98.041l-22.484-26.917a453.414 453.414 0 0 0-15.508-16.311c-40.809-40.809-88.338-72.851-141.268-95.239a441.237 441.237 0 0 0-75.858-24.306l-0.067-0.015a454.197 454.197 0 0 0-5.911-1.275 429.23 429.23 0 0 0-11.619-2.261 417.906 417.906 0 0 0-5.725-0.995 420.027 420.027 0 0 0-3.731-0.606c-0.659-0.104-1.319-0.208-1.978-0.31a460.512 460.512 0 0 0-9.006-1.287c-0.782-0.104-1.563-0.208-2.346-0.307a427.317 427.317 0 0 0-3.191-0.391c-0.823-0.099-1.645-0.198-2.469-0.292-1.03-0.117-2.061-0.228-3.092-0.339-0.855-0.091-1.709-0.184-2.565-0.271-1.007-0.102-2.015-0.196-3.023-0.292-0.879-0.083-1.758-0.168-2.637-0.245-0.995-0.088-1.992-0.168-2.988-0.249-0.889-0.073-1.777-0.147-2.667-0.215-0.999-0.075-1.999-0.142-2.999-0.211-0.889-0.061-1.778-0.125-2.668-0.181-1.012-0.064-2.025-0.118-3.039-0.175-0.877-0.049-1.754-0.102-2.632-0.146-1.046-0.052-2.093-0.095-3.14-0.14-0.848-0.037-1.694-0.078-2.543-0.11-1.103-0.041-2.208-0.072-3.312-0.105l-0.521-0.017c-2.091-0.128-4.19-0.2-6.297-0.2-0.736 0-1.47 0.014-2.204 0.029-1.595-0.017-3.19-0.029-4.787-0.029-1.908 0-3.814 0.012-5.719 0.036-0.667 0.008-1.333 0.026-2 0.037-1.236 0.021-2.472 0.04-3.706 0.071-0.795 0.02-1.589 0.049-2.384 0.073-1.104 0.033-2.209 0.064-3.312 0.105-0.849 0.032-1.695 0.073-2.543 0.11-1.047 0.045-2.094 0.088-3.139 0.14-0.879 0.044-1.756 0.097-2.634 0.146-1.012 0.057-2.025 0.111-3.036 0.175-0.891 0.056-1.78 0.12-2.67 0.181-0.999 0.069-1.999 0.136-2.997 0.211-0.89 0.067-1.78 0.142-2.669 0.215-0.996 0.081-1.992 0.161-2.986 0.249-0.881 0.078-1.76 0.162-2.64 0.245-1.007 0.095-2.015 0.19-3.021 0.291-0.857 0.087-1.712 0.18-2.567 0.271-1.03 0.11-2.06 0.221-3.089 0.338-0.825 0.094-1.648 0.193-2.472 0.292-1.063 0.127-2.126 0.256-3.188 0.391a527.91 527.91 0 0 0-5.667 0.758 526.285 526.285 0 0 0-5.684 0.835 466.058 466.058 0 0 0-7.441 1.209 444.066 444.066 0 0 0-9.773 1.786c-0.357 0.07-0.715 0.139-1.072 0.21-1.59 0.313-3.178 0.636-4.764 0.967l-0.622 0.13c-1.764 0.371-3.526 0.752-5.286 1.145l-0.082 0.018a441.244 441.244 0 0 0-75.851 24.304c-52.93 22.388-100.459 54.43-141.268 95.239a452.833 452.833 0 0 0-15.512 16.316l-22.48 26.911a442.189 442.189 0 0 0-57.247 98.041C78.013 390.559 66.258 448.77 66.258 508.758c0 59.988 11.756 118.198 34.941 173.015 16.495 39 38.251 75.056 64.874 107.664l28.694 31.894c0.561 0.567 1.106 1.146 1.671 1.711 40.809 40.808 88.338 72.851 141.268 95.238 44.607 18.868 91.464 30.165 139.695 33.719 0.102 0.008 0.205 0.013 0.307 0.021 1.733 0.127 3.468 0.245 5.204 0.351 0.268 0.016 0.537 0.029 0.805 0.045 1.573 0.094 3.146 0.183 4.722 0.26 0.466 0.023 0.934 0.039 1.401 0.06 1.381 0.063 2.763 0.127 4.146 0.178 0.69 0.025 1.381 0.041 2.071 0.064 1.162 0.037 2.323 0.078 3.486 0.107 1.007 0.025 2.016 0.038 3.025 0.056 0.853 0.015 1.705 0.036 2.558 0.047 1.863 0.023 3.727 0.034 5.594 0.034 1.6 0 3.198-0.013 4.795-0.029 0.731 0.016 1.463 0.029 2.196 0.029 2.113 0 4.217-0.072 6.313-0.202 0.453-0.013 0.906-0.027 1.358-0.042 0.69-0.022 1.382-0.038 2.071-0.064 1.383-0.051 2.765-0.114 4.146-0.178 0.467-0.021 0.934-0.037 1.401-0.06 1.576-0.077 3.149-0.167 4.722-0.26 0.268-0.016 0.537-0.028 0.805-0.045 1.737-0.107 3.471-0.225 5.204-0.351 0.102-0.008 0.205-0.013 0.307-0.021 48.232-3.554 95.088-14.851 139.696-33.719 52.93-22.388 100.459-54.431 141.268-95.238 0.569-0.569 1.118-1.153 1.684-1.724l28.681-31.881c26.624-32.608 48.378-68.663 64.873-107.664 23.186-54.816 34.941-113.026 34.941-173.015 0.001-59.985-11.755-118.196-34.94-173.012zM889.198 469.77H716.764c-2.31-62.635-10.171-122.586-23-176.443 38.865-7.529 75.102-17.508 107.659-29.753 48.083 56.92 79.789 128.099 87.775 206.196zM750.277 213.399c-23.095 7.113-48.076 13.156-74.397 18.039-3.135-9.062-6.426-17.877-9.89-26.391-8.221-20.21-17.224-38.392-26.899-54.457 40.71 14.636 78.224 36.024 111.186 62.809z m-321.565 15.764c25.269-62.119 57.867-99.59 87.51-100.807 0.605 0.008 1.211 0.008 1.815 0.019 0.55 0.01 1.099 0.019 1.648 0.031 0.384 0.009 0.766 0.027 1.15 0.036 29.201 2.502 61.068 39.744 85.872 100.72a457.753 457.753 0 0 1 4.526 11.625c-32.554 3.462-66.334 5.273-100.515 5.273-29.486 0-58.676-1.347-87.038-3.938a464.61 464.61 0 0 1 5.032-12.959z m82.008 80.898c41.092 0 81.247-2.352 119.625-6.897 12.406 50.261 20.065 106.935 22.39 166.606H382.686c2.302-59.073 9.827-115.216 22.014-165.1 34.227 3.553 69.756 5.391 106.02 5.391zM399.926 144.755c-11.049 17.452-21.265 37.598-30.497 60.293-3.759 9.241-7.316 18.833-10.688 28.717-31.18-5.241-60.662-12.075-87.58-20.365 37.657-30.6 81.253-54.156 128.765-68.645z m-179.91 118.819c36.271 13.642 77.097 24.483 121.047 32.245-12.48 53.21-20.131 112.282-22.406 173.95H132.241c7.986-78.096 39.692-149.275 87.775-206.195zM131.073 533.77h187.162c1.695 71.998 10.69 140.829 26.123 201.393-41.475 7.155-80.272 17.015-115.073 29.359-56.244-61.835-92.439-142.212-98.212-230.752z m153.021 280.411c24.767-7.039 51.346-12.854 79.266-17.368a513.74 513.74 0 0 0 6.069 15.66c9.232 22.695 19.448 42.841 30.497 60.293-42.166-12.858-81.249-32.857-115.832-58.585z m236.775 74.894c-0.545 0.014-1.089 0.037-1.635 0.049-0.559 0.012-1.118 0.022-1.677 0.032-0.422 0.007-0.845 0.007-1.267 0.013-29.585-1.16-62.12-38.456-87.381-100.336 26.59-2.238 53.97-3.389 81.811-3.389 32.567 0 64.502 1.576 95.278 4.625-24.691 59.93-56.213 96.503-85.129 99.006zM510.72 721.442c-34.943 0-69.307 1.723-102.521 5.06-15.273-57.022-24.218-123.049-25.948-192.733h270.92c-1.745 70.279-10.823 136.846-26.335 194.2-37.396-4.297-76.381-6.527-116.116-6.527z m128.372 145.489c9.675-16.065 18.678-34.247 26.899-54.457a511.68 511.68 0 0 0 5.223-13.421c23.14 4.146 45.279 9.202 66.131 15.129-29.726 22.114-62.777 39.995-98.253 52.749z m153.063-102.41c-31.034-11.008-65.244-20.043-101.7-26.944 15.81-61.143 25.014-130.856 26.731-203.808h173.18c-5.773 88.541-41.968 168.918-98.211 230.752z" p-id="8016" fill="#bfbfbf"></path></svg>