<?xml version="1.0" standalone="no"?><!DOCTYPE svg PUBLIC "-//W3C//DTD SVG 1.1//EN" "http://www.w3.org/Graphics/SVG/1.1/DTD/svg11.dtd"><svg t="1731058490391" class="icon" viewBox="0 0 1024 1024" version="1.1" xmlns="http://www.w3.org/2000/svg" p-id="5067" xmlns:xlink="http://www.w3.org/1999/xlink" width="16" height="16"><path d="M505.984 178.752c188.416 0 339.456 150.208 339.456 333.376 0 183.104-151.04 333.312-339.456 333.312-157.568 0-288.96-104.96-327.808-246.4l-66.112 10.752c44.224 173.696 203.84 302.336 393.92 302.336 224.256 0 406.08-179.136 406.08-400 0-220.928-181.76-400-406.08-400A407.552 407.552 0 0 0 178.56 275.456v-106.24H112v201.408a32 32 0 0 0 32 32h200.128V335.808H217.92a340.288 340.288 0 0 1 288-157.056z" fill="#cdcdcd" fill-opacity=".9" p-id="5068"></path><path d="M448 352v184.896l169.344 169.344 45.248-45.248L512 510.4V352H448z" fill="#cdcdcd" fill-opacity=".9" p-id="5069"></path></svg>