<?xml version="1.0" standalone="no"?><!DOCTYPE svg PUBLIC "-//W3C//DTD SVG 1.1//EN" "http://www.w3.org/Graphics/SVG/1.1/DTD/svg11.dtd"><svg t="1639304840240" class="icon" viewBox="0 0 1024 1024" version="1.1" xmlns="http://www.w3.org/2000/svg" p-id="10558" width="16" height="16" xmlns:xlink="http://www.w3.org/1999/xlink"><defs><style type="text/css"></style></defs><path d="M853.333333 42.666667H170.666667C99.978667 42.666667 42.666667 99.978667 42.666667 170.666667v682.666666c0 70.688 57.312 128 128 128h682.666666c70.688 0 128-57.312 128-128V170.666667c0-70.688-57.312-128-128-128z m42.666667 810.666666c0 23.573333-19.093333 42.666667-42.666667 42.666667H316.341333L682.666667 529.674667l213.333333 213.322666V853.333333z m0-230.997333l-213.333333-213.333333L195.658667 896H170.666667c-23.573333 0-42.666667-19.093333-42.666667-42.666667V170.666667c0-23.573333 19.093333-42.666667 42.666667-42.666667h682.666666c23.573333 0 42.666667 19.093333 42.666667 42.666667v451.669333zM341.333333 213.333333c-70.688 0-128 57.312-128 128s57.312 128 128 128 128-57.312 128-128-57.312-128-128-128z m0 170.666667a42.666667 42.666667 0 1 1 0-85.333333 42.666667 42.666667 0 0 1 0 85.333333z" p-id="10559" fill="#bfbfbf"></path></svg>