<?xml version="1.0" standalone="no"?><!DOCTYPE svg PUBLIC "-//W3C//DTD SVG 1.1//EN" "http://www.w3.org/Graphics/SVG/1.1/DTD/svg11.dtd"><svg t="1738741902380" class="icon" viewBox="0 0 1024 1024" version="1.1" xmlns="http://www.w3.org/2000/svg" p-id="4188" xmlns:xlink="http://www.w3.org/1999/xlink" width="16" height="16"><path d="M512 958.016C266.08 958.016 65.984 757.952 65.984 512 65.984 266.08 266.08 65.984 512 65.984c245.952 0 446.016 200.064 446.016 446.016 0 245.952-200.064 446.016-446.016 446.016z m0-828.032c-210.656 0-382.016 171.36-382.016 382.016 0 210.624 171.36 382.016 382.016 382.016 210.624 0 382.016-171.36 382.016-382.016S722.624 129.984 512 129.984zM464 304a1.5 1.5 0 1 0 96 0 1.5 1.5 0 1 0-96 0z m48 464c-17.664 0-32-14.304-32-32V448c0-17.664 14.336-32 32-32s32 14.336 32 32v288c0 17.696-14.336 32-32 32z" fill="#cdcdcd" p-id="4189"></path></svg>