<?xml version="1.0" standalone="no"?><!DOCTYPE svg PUBLIC "-//W3C//DTD SVG 1.1//EN" "http://www.w3.org/Graphics/SVG/1.1/DTD/svg11.dtd"><svg t="1639303329973" class="icon" viewBox="0 0 1024 1024" version="1.1" xmlns="http://www.w3.org/2000/svg" p-id="4206" width="16" height="16" xmlns:xlink="http://www.w3.org/1999/xlink"><defs><style type="text/css"></style></defs><path d="M213.333333 128h85.333334v85.333333H213.333333v213.333334a85.333333 85.333333 0 0 1-85.333333 85.333333 85.333333 85.333333 0 0 1 85.333333 85.333333v213.333334h85.333334v85.333333H213.333333c-45.653333-11.52-85.333333-38.4-85.333333-85.333333v-170.666667a85.333333 85.333333 0 0 0-85.333333-85.333333H0v-85.333334h42.666667a85.333333 85.333333 0 0 0 85.333333-85.333333V213.333333a85.333333 85.333333 0 0 1 85.333333-85.333333m597.333334 0a85.333333 85.333333 0 0 1 85.333333 85.333333v170.666667a85.333333 85.333333 0 0 0 85.333333 85.333333h42.666667v85.333334h-42.666667a85.333333 85.333333 0 0 0-85.333333 85.333333v170.666667a85.333333 85.333333 0 0 1-85.333333 85.333333h-85.333334v-85.333333h85.333334v-213.333334a85.333333 85.333333 0 0 1 85.333333-85.333333 85.333333 85.333333 0 0 1-85.333333-85.333333V213.333333h-85.333334V128h85.333334m-298.666667 512a42.666667 42.666667 0 0 1 42.666667 42.666667 42.666667 42.666667 0 0 1-42.666667 42.666666 42.666667 42.666667 0 0 1-42.666667-42.666666 42.666667 42.666667 0 0 1 42.666667-42.666667m-170.666667 0a42.666667 42.666667 0 0 1 42.666667 42.666667 42.666667 42.666667 0 0 1-42.666667 42.666666 42.666667 42.666667 0 0 1-42.666666-42.666666 42.666667 42.666667 0 0 1 42.666666-42.666667m341.333334 0a42.666667 42.666667 0 0 1 42.666666 42.666667 42.666667 42.666667 0 0 1-42.666666 42.666666 42.666667 42.666667 0 0 1-42.666667-42.666666 42.666667 42.666667 0 0 1 42.666667-42.666667z" fill="#bfbfbf" p-id="4207"></path></svg>