<?xml version="1.0" standalone="no"?><!DOCTYPE svg PUBLIC "-//W3C//DTD SVG 1.1//EN" "http://www.w3.org/Graphics/SVG/1.1/DTD/svg11.dtd"><svg t="1734591172449" class="icon" viewBox="0 0 1024 1024" version="1.1" xmlns="http://www.w3.org/2000/svg" p-id="13049" xmlns:xlink="http://www.w3.org/1999/xlink" width="16" height="16"><path d="M170.666667 174.933333a17.066667 17.066667 0 1 0 0 34.133334h14.933333v93.866666H170.666667a17.066667 17.066667 0 1 0 0 34.133334h64a17.066667 17.066667 0 0 0 0-34.133334h-14.933334V192.426667a17.493333 17.493333 0 0 0-17.493333-17.493334H170.666667zM170.666667 430.933333a17.066667 17.066667 0 0 0 0 34.133334h46.933333v29.866666h-42.666667a21.333333 21.333333 0 0 0-21.333333 21.333334v55.466666a21.333333 21.333333 0 0 0 21.333333 21.333334h59.733334a17.066667 17.066667 0 0 0 0-34.133334H187.733333v-29.866666h42.666667a21.333333 21.333333 0 0 0 21.333333-21.333334v-55.466666a21.333333 21.333333 0 0 0-21.333333-21.333334H170.666667zM153.6 704c0-9.386667 7.68-17.066667 17.066667-17.066667h59.733333a21.333333 21.333333 0 0 1 21.333333 21.333334v119.466666a21.333333 21.333333 0 0 1-21.333333 21.333334H170.666667a17.066667 17.066667 0 0 1 0-34.133334h46.933333v-29.866666H170.666667a17.066667 17.066667 0 0 1 0-34.133334h46.933333v-29.866666H170.666667a17.066667 17.066667 0 0 1-17.066667-17.066667zM341.333333 224a32 32 0 1 0 0 64h512a32 32 0 0 0 0-64H341.333333zM341.333333 480a32 32 0 0 0 0 64h512a32 32 0 0 0 0-64H341.333333zM341.333333 736a32 32 0 0 0 0 64h512a32 32 0 0 0 0-64H341.333333z" p-id="13050" fill="#cdcdcd"></path></svg>