<?xml version="1.0" standalone="no"?><!DOCTYPE svg PUBLIC "-//W3C//DTD SVG 1.1//EN" "http://www.w3.org/Graphics/SVG/1.1/DTD/svg11.dtd"><svg t="1734665724572" class="icon" viewBox="0 0 1024 1024" version="1.1" xmlns="http://www.w3.org/2000/svg" p-id="51475" xmlns:xlink="http://www.w3.org/1999/xlink" width="16" height="16"><path d="M242.381 696.711c13.97 9.317 24.653 20.004 31.9 32.09 10.595 17.664 13.116 37 8.737 55.984-2.796 12.122-8.151 23.336-15.314 33.793l-0.522 0.755 0.522 0.756c6.988 10.201 12.255 21.124 15.105 32.907l0.209 0.885c4.379 18.984 1.858 38.32-8.736 55.985-7.248 12.085-17.932 22.773-31.9 32.09-24.926 16.623-50.67 22.743-75.611 18.977-19.785-2.988-37.2-11.778-52.307-24.285a131.906 131.906 0 0 1-16.523-16.343 116.587 116.587 0 0 1-4.065-5.07l-0.68-0.91-0.443-0.608-0.592-0.827-0.344-0.493-0.305-0.447-0.138-0.205c-9.8-14.707-5.823-34.574 8.884-44.374 14.56-9.702 34.177-5.901 44.077 8.446l0.232 0.333 0.423 0.57 0.446 0.578 0.499 0.626 0.55 0.67 0.296 0.35a68.372 68.372 0 0 0 8.497 8.408c6.786 5.618 13.93 9.223 21.049 10.298 8.86 1.338 18.609-0.98 30.543-8.939 6.467-4.313 10.444-8.292 12.526-11.762 1.734-2.892 2.045-5.277 1.26-8.682-0.96-4.16-3.555-9.18-7.418-14.331a70.675 70.675 0 0 0-2.05-2.604l-29.215 0.001c-17.673 0-32-14.327-32-32 0-17.496 14.042-31.713 31.47-31.995l0.53-0.005 29.215 0.002a70.674 70.674 0 0 0 2.05-2.604c3.863-5.152 6.458-10.172 7.417-14.331 0.786-3.405 0.475-5.79-1.26-8.682-2.08-3.47-6.058-7.45-12.525-11.762-11.934-7.96-21.682-10.277-30.543-8.94-7.118 1.076-14.262 4.682-21.048 10.3a68.376 68.376 0 0 0-8.498 8.407l-0.577 0.691-0.525 0.649-0.472 0.602-0.502 0.665-0.18 0.245 0.107-0.161c-9.8 14.707-29.667 18.684-44.374 8.884s-18.684-29.667-8.884-44.374l0.285-0.422 0.502-0.723 0.591-0.827 0.68-0.927a114.932 114.932 0 0 1 4.509-5.661 131.91 131.91 0 0 1 16.523-16.344c15.106-12.507 32.522-21.298 52.306-24.286 24.941-3.766 50.686 2.354 75.611 18.977zM907 787.333c17.673 0 32 14.327 32 32 0 17.497-14.042 31.713-31.47 31.996l-0.53 0.004H437.865c-17.673 0-32-14.327-32-32 0-17.496 14.042-31.713 31.47-31.995l0.53-0.005H907zM197.734 377.285c21.07 5.27 39.278 18.932 53.517 40.3 13.627 20.449 16.29 43.757 9.313 67.034-7.069 23.581-23.254 45.99-46.34 68.048h31.722c17.673 0 32 14.327 32 32 0 17.496-14.042 31.713-31.47 31.995l-0.53 0.005h-128.09c-0.405-0.002-0.81-0.012-1.213-0.03a31.823 31.823 0 0 1-16.418-5.357 31.771 31.771 0 0 1-7.433-6.9 31.88 31.88 0 0 1-5.962-12.44l-0.043-0.186a31.863 31.863 0 0 1-0.644-10.146c0.006-0.047 0.01-0.095 0.015-0.142a31.789 31.789 0 0 1 3.884-12.378 31.807 31.807 0 0 1 10.795-11.434c0.443-0.282 0.894-0.554 1.351-0.814l0.857-0.5 1.098-0.65 1.234-0.742 1.62-0.986 1.485-0.913 0.76-0.471 1.55-0.97 1.592-1.006 1.634-1.043 1.672-1.078 0.85-0.553 1.727-1.13c12.466-8.204 24.924-17.261 36.428-26.818 0.483-0.4 0.962-0.801 1.438-1.201l1.419-1.2 1.399-1.198c0.463-0.398 0.923-0.797 1.38-1.195l1.359-1.192 1.34-1.19 1.318-1.187 1.299-1.184 1.277-1.18 1.257-1.177 1.236-1.172 0.61-0.585 1.204-1.167 0.594-0.582 1.172-1.16c0.387-0.386 0.77-0.771 1.15-1.156l1.127-1.15a176.692 176.692 0 0 0 8.676-9.562l0.91-1.096 0.886-1.089a114.988 114.988 0 0 0 5.521-7.41l0.689-1.027c3.493-5.281 5.966-10.215 7.303-14.678 1.719-5.732 1.31-9.3-1.266-13.168-5.753-8.633-10.869-12.47-15.788-13.701-6.958-1.74-17.297 1.295-28.73 8.648a95.903 95.903 0 0 0-9.898 7.317l-0.718 0.613-0.34 0.294-0.636 0.561-0.296 0.267-0.78 0.717-0.263 0.25-0.289 0.283c-12.521 12.127-32.503 12.007-44.878-0.362-12.5-12.494-12.503-32.755-0.01-45.255l0.513-0.505 0.63-0.606 0.746-0.703 0.275-0.255c0.311-0.289 0.632-0.583 0.963-0.883l1.018-0.914a159.421 159.421 0 0 1 19.344-14.648c10.389-6.681 21.337-11.997 32.883-15.386 15.261-4.481 30.757-5.332 45.995-1.52zM907 488.667c17.673 0 32 14.327 32 32 0 17.496-14.042 31.713-31.47 31.995l-0.53 0.005H437.865c-17.673 0-32-14.327-32-32 0-17.497 14.042-31.713 31.47-31.996l0.53-0.004H907zM183.858 62.054l0.167 0.01a32.302 32.302 0 0 1 0.736 0.056l0.122 0.012a31.78 31.78 0 0 1 12.549 3.843 31.79 31.79 0 0 1 9.772 8.34 31.914 31.914 0 0 1 5.32 10.136l0.018 0.06a31.863 31.863 0 0 1 1.432 9.849L213.973 254h31.973c17.673 0 32 14.327 32 32 0 17.496-14.042 31.713-31.47 31.996l-0.53 0.004H118c-17.673 0-32-14.327-32-32 0-17.496 14.042-31.713 31.47-31.996L118 254h31.973V153.807l-14.217 9.482c-14.703 9.806-34.572 5.836-44.378-8.867-9.708-14.556-5.915-34.174 8.429-44.08l0.437-0.297 63.634-42.441a31.889 31.889 0 0 1 7.688-3.874l0.088-0.029c0.136-0.047 0.272-0.092 0.409-0.137l0.059-0.019c0.132-0.043 0.264-0.084 0.397-0.125l0.118-0.037a30.31 30.31 0 0 1 0.606-0.178l0.145-0.04 0.37-0.102 0.063-0.015a31.895 31.895 0 0 1 10.037-0.994zM907 190c17.673 0 32 14.327 32 32 0 17.496-14.042 31.713-31.47 31.996L907 254H437.865c-17.673 0-32-14.327-32-32 0-17.496 14.042-31.713 31.47-31.996l0.53-0.004H907z" p-id="51476" fill="#cdcdcd"></path></svg>