<?xml version="1.0" standalone="no"?><!DOCTYPE svg PUBLIC "-//W3C//DTD SVG 1.1//EN" "http://www.w3.org/Graphics/SVG/1.1/DTD/svg11.dtd"><svg t="1734591131610" class="icon" viewBox="0 0 1024 1024" version="1.1" xmlns="http://www.w3.org/2000/svg" p-id="4242" xmlns:xlink="http://www.w3.org/1999/xlink" width="16" height="16"><path d="M192 149.333333a64 64 0 1 0 0 128 64 64 0 0 0 0-128zM192 448a64 64 0 1 0 0 128 64 64 0 0 0 0-128zM128 810.666667a64 64 0 1 1 128 0 64 64 0 0 1-128 0zM341.333333 181.333333a32 32 0 0 0 0 64h512a32 32 0 0 0 0-64H341.333333zM341.333333 480a32 32 0 0 0 0 64h512a32 32 0 0 0 0-64H341.333333zM341.333333 778.666667a32 32 0 0 0 0 64h512a32 32 0 0 0 0-64H341.333333z" p-id="4243" fill="#cdcdcd"></path></svg>