<?xml version="1.0" standalone="no"?><!DOCTYPE svg PUBLIC "-//W3C//DTD SVG 1.1//EN" "http://www.w3.org/Graphics/SVG/1.1/DTD/svg11.dtd"><svg t="1734665879259" class="icon" viewBox="0 0 1024 1024" version="1.1" xmlns="http://www.w3.org/2000/svg" p-id="51669" xmlns:xlink="http://www.w3.org/1999/xlink" width="16" height="16"><path d="M192.368 693.333c64.817 0 117.369 52.53 117.369 117.334C309.737 875.47 257.185 928 192.368 928 127.551 928 75 875.47 75 810.667c0-64.804 52.55-117.334 117.368-117.334zM918 778.667c17.673 0 32 14.327 32 32 0 17.496-14.042 31.713-31.47 31.995l-0.53 0.005H448.474c-17.673 0-32-14.327-32-32 0-17.497 14.041-31.713 31.47-31.996l0.53-0.004H918z m-725.632-384c64.818 0 117.369 52.528 117.369 117.333s-52.551 117.333-117.369 117.333S75 576.805 75 512s52.55-117.333 117.368-117.333zM918 480c17.673 0 32 14.327 32 32 0 17.496-14.042 31.713-31.47 31.996L918 544H448.474c-17.673 0-32-14.327-32-32 0-17.496 14.041-31.713 31.47-31.996l0.53-0.004H918zM192.368 96c64.818 0 117.369 52.53 117.369 117.333 0 64.805-52.551 117.334-117.369 117.334S75 278.139 75 213.333C75 148.53 127.55 96 192.368 96zM918 181.333c17.673 0 32 14.327 32 32 0 17.497-14.042 31.713-31.47 31.996l-0.53 0.004H448.474c-17.673 0-32-14.327-32-32 0-17.496 14.041-31.713 31.47-31.995l0.53-0.005H918z" p-id="51670" fill="#cdcdcd"></path></svg>