<?xml version="1.0" standalone="no"?><!DOCTYPE svg PUBLIC "-//W3C//DTD SVG 1.1//EN" "http://www.w3.org/Graphics/SVG/1.1/DTD/svg11.dtd"><svg t="1705475482057" class="icon" viewBox="0 0 1024 1024" version="1.1" xmlns="http://www.w3.org/2000/svg" p-id="5038" xmlns:xlink="http://www.w3.org/1999/xlink" width="16" height="16"><path d="M512 42.666667a469.333333 469.333333 0 1 0 469.333333 469.333333A469.333333 469.333333 0 0 0 512 42.666667z m0 864a394.666667 394.666667 0 1 1 394.666667-394.666667 395.146667 395.146667 0 0 1-394.666667 394.666667z" p-id="5039" fill="#cdcdcd"></path><path d="M304.906667 512m-66.666667 0a66.666667 66.666667 0 1 0 133.333333 0 66.666667 66.666667 0 1 0-133.333333 0Z" p-id="5040" fill="#cdcdcd"></path><path d="M512 512m-66.666667 0a66.666667 66.666667 0 1 0 133.333334 0 66.666667 66.666667 0 1 0-133.333334 0Z" p-id="5041" fill="#cdcdcd"></path><path d="M719.093333 512m-66.666666 0a66.666667 66.666667 0 1 0 133.333333 0 66.666667 66.666667 0 1 0-133.333333 0Z" p-id="5042" fill="#cdcdcd"></path></svg>