<?xml version="1.0" standalone="no"?><!DOCTYPE svg PUBLIC "-//W3C//DTD SVG 1.1//EN" "http://www.w3.org/Graphics/SVG/1.1/DTD/svg11.dtd"><svg t="1703051202311" class="icon" viewBox="0 0 1024 1024" version="1.1" xmlns="http://www.w3.org/2000/svg" p-id="21755" xmlns:xlink="http://www.w3.org/1999/xlink" width="16" height="16"><path d="M896.64 127.36c80.768 80.704 64.096 230.304-23.584 384.64 87.68 154.336 104.32 303.936 23.616 384.64-80.736 80.768-230.336 64.096-384.704-23.616-154.304 87.68-303.904 104.384-384.64 23.648-80.736-80.736-64.064-230.336 23.616-384.64-87.68-154.368-104.32-303.968-23.616-384.704 80.736-80.736 230.336-64.064 384.704 23.648 154.304-87.68 303.904-104.384 384.64-23.648z m-62.848 447.104l-5.76 8.32a1020.32 1020.32 0 0 1-112.384 132.864 1014.976 1014.976 0 0 1-141.216 118.176c118.688 59.84 225.28 69.28 276.992 17.6 51.68-51.712 42.24-158.304-17.6-276.96z m-643.616 0l-0.576 1.216c-59.328 118.176-68.512 224.224-17.024 275.744 51.712 51.68 158.304 42.24 276.96-17.6a1015.104 1015.104 0 0 1-141.184-118.176 1014.976 1014.976 0 0 1-118.176-141.216zM512 225.728l-0.896 0.544a930.944 930.944 0 0 0-157.504 127.296C302.304 404.896 259.392 458.88 225.76 512c33.6 53.12 76.544 107.104 127.84 158.4 51.296 51.296 105.28 94.208 158.4 127.84 53.12-33.6 107.104-76.544 158.4-127.84 51.296-51.296 94.208-105.28 127.84-158.4-33.6-53.12-76.544-107.104-127.84-158.4-51.296-51.296-105.28-94.208-158.4-127.84z m0 206.24a80 80 0 1 1 0 160 80 80 0 0 1 0-160zM172.576 172.576c-51.68 51.712-42.24 158.336 17.632 276.992a1012.064 1012.064 0 0 1 118.144-141.216 1014.976 1014.976 0 0 1 141.216-118.176c-118.656-59.84-225.28-69.28-276.992-17.6z m412.896 12.16l-11.04 5.44a1014.976 1014.976 0 0 1 141.216 118.176 1014.976 1014.976 0 0 1 118.144 141.184c59.872-118.656 69.312-225.28 17.6-276.96-50.048-50.08-151.68-42.784-265.92 12.16z" p-id="21756" fill="#cdcdcd"></path></svg>