<?xml version="1.0" encoding="UTF-8"?>
<!DOCTYPE svg PUBLIC "-//W3C//DTD SVG 1.1//EN" "http://www.w3.org/Graphics/SVG/1.1/DTD/svg11.dtd">
<svg xmlns="http://www.w3.org/2000/svg" version="1.1" width="22px" height="27px" style="shape-rendering:geometricPrecision; text-rendering:geometricPrecision; image-rendering:optimizeQuality; fill-rule:evenodd; clip-rule:evenodd" xmlns:xlink="http://www.w3.org/1999/xlink">
<g><path style="opacity:0.638" fill="#212121" d="M 0.5,0.5 C 0.5,0.166667 0.5,-0.166667 0.5,-0.5C 3.83333,-0.5 7.16667,-0.5 10.5,-0.5C 8.93966,1.12936 9.27299,2.29602 11.5,3C 9.19018,3.49665 6.85684,3.66331 4.5,3.5C 4.5,3.16667 4.5,2.83333 4.5,2.5C 4.02694,1.09368 3.02694,0.427017 1.5,0.5C 1.16667,0.5 0.833333,0.5 0.5,0.5 Z"/></g>
<g><path style="opacity:0.699" fill="#242424" d="M -0.5,0.5 C -0.166667,0.5 0.166667,0.5 0.5,0.5C 0.833333,0.5 1.16667,0.5 1.5,0.5C 0.866013,7.59992 0.199346,14.5999 -0.5,21.5C -0.5,14.5 -0.5,7.5 -0.5,0.5 Z"/></g>
<g><path style="opacity:0.731" fill="#323232" d="M 1.5,0.5 C 3.02694,0.427017 4.02694,1.09368 4.5,2.5C 3.83333,2.5 3.5,2.83333 3.5,3.5C 2.83333,3.5 2.5,3.83333 2.5,4.5C 2.8235,11.0221 2.49016,17.3554 1.5,23.5C 1.15829,22.6618 0.491622,22.3284 -0.5,22.5C -0.5,22.1667 -0.5,21.8333 -0.5,21.5C 0.199346,14.5999 0.866013,7.59992 1.5,0.5 Z"/></g>
<g><path style="opacity:0.223" fill="#3d3d3d" d="M 2.5,4.5 C 2.83333,4.5 3.16667,4.5 3.5,4.5C 3.5,11.1667 3.5,17.8333 3.5,24.5C 2.50838,24.6716 1.84171,24.3382 1.5,23.5C 2.49016,17.3554 2.8235,11.0221 2.5,4.5 Z"/></g>
<g><path style="opacity:0.761" fill="#262626" d="M 10.5,-0.5 C 10.8333,-0.5 11.1667,-0.5 11.5,-0.5C 12.1667,0.5 12.8333,1.5 13.5,2.5C 12.6618,2.84171 12.3284,3.50838 12.5,4.5C 10.1432,4.33669 7.80982,4.50335 5.5,5C 4.94404,5.38258 4.61071,5.88258 4.5,6.5C 4.5,9.5 4.5,12.5 4.5,15.5C 4.5,16.5 4.5,17.5 4.5,18.5C 4.20528,20.7354 4.53862,22.7354 5.5,24.5C 6.5,24.5 7.5,24.5 8.5,24.5C 12.2984,25.4834 16.2984,25.8168 20.5,25.5C 20.5,25.8333 20.5,26.1667 20.5,26.5C 14.8333,26.5 9.16667,26.5 3.5,26.5C 3.5,25.8333 3.5,25.1667 3.5,24.5C 3.5,17.8333 3.5,11.1667 3.5,4.5C 3.5,4.16667 3.5,3.83333 3.5,3.5C 3.83333,3.5 4.16667,3.5 4.5,3.5C 6.85684,3.66331 9.19018,3.49665 11.5,3C 9.27299,2.29602 8.93966,1.12936 10.5,-0.5 Z"/></g>
<g><path style="opacity:0.623" fill="#252525" d="M 13.5,2.5 C 16.1667,4.83333 18.8333,7.16667 21.5,9.5C 21.5,14.8333 21.5,20.1667 21.5,25.5C 21.1667,25.5 20.8333,25.5 20.5,25.5C 20.8195,20.6367 20.4861,15.97 19.5,11.5C 14.1667,12.1667 11.8333,9.83333 12.5,4.5C 12.3284,3.50838 12.6618,2.84171 13.5,2.5 Z M 14.5,6.5 C 15.6266,7.12167 16.6266,7.95501 17.5,9C 15.5106,9.51922 14.5106,8.68588 14.5,6.5 Z"/></g>
<g><path style="opacity:0.746" fill="#474747" d="M 4.5,6.5 C 5.3171,8.96864 5.8171,11.6353 6,14.5C 9.03958,13.7919 12.2062,13.7919 15.5,14.5C 17.099,14.2322 18.4324,14.5655 19.5,15.5C 16.9487,20.7101 13.2821,21.7101 8.5,18.5C 7.89333,18.6236 7.55999,18.9569 7.5,19.5C 6.50838,19.6716 5.84171,19.3382 5.5,18.5C 5.73731,17.209 5.40397,16.209 4.5,15.5C 4.5,12.5 4.5,9.5 4.5,6.5 Z"/></g>
<g><path style="opacity:0.027" fill="#ededed" d="M 4.5,18.5 C 4.83333,18.5 5.16667,18.5 5.5,18.5C 5.84171,19.3382 6.50838,19.6716 7.5,19.5C 6.03201,20.7791 5.36534,22.4458 5.5,24.5C 4.53862,22.7354 4.20528,20.7354 4.5,18.5 Z"/></g>
<g><path style="opacity:0.056" fill="#101010" d="M 19.5,11.5 C 20.4861,15.97 20.8195,20.6367 20.5,25.5C 16.2984,25.8168 12.2984,25.4834 8.5,24.5C 12.1667,24.5 15.8333,24.5 19.5,24.5C 19.5,21.5 19.5,18.5 19.5,15.5C 18.4324,14.5655 17.099,14.2322 15.5,14.5C 17.2191,13.9779 18.5525,12.9779 19.5,11.5 Z"/></g>
</svg>
