<?xml version="1.0" standalone="no"?><!DOCTYPE svg PUBLIC "-//W3C//DTD SVG 1.1//EN" "http://www.w3.org/Graphics/SVG/1.1/DTD/svg11.dtd"><svg t="1639391100718" class="icon" viewBox="0 0 1024 1024" version="1.1" xmlns="http://www.w3.org/2000/svg" p-id="16981" width="16" height="16" xmlns:xlink="http://www.w3.org/1999/xlink"><defs><style type="text/css"></style></defs><path d="M309.44 261.248c16.576-7.68 32.64-15.424 47.744-23.04 15.104-7.744 27.264-13.44 36.16-17.024 8.96-3.52 16.128-5.376 21.568-5.376 8.96 0 16.704 2.944 23.232 9.088C444.736 230.848 448 238.464 448 247.36c0 5.12-1.6 10.496-4.8 16S436.544 272.448 433.024 273.984C399.872 286.976 363.392 296.576 323.648 302.528 330.88 309.056 339.712 318.016 350.272 329.024 360.768 340.096 366.336 345.984 366.72 346.752 370.624 352.128 376 358.784 382.912 366.72c6.912 8 11.776 14.208 14.464 18.688 2.688 4.544 4.032 9.92 4.032 16.384 0 8.192-3.072 15.424-9.28 21.568C386.048 429.568 378.048 432.64 368.32 432.64S347.648 425.024 335.36 409.92C323.2 394.816 307.456 367.552 288.192 328.256 268.672 363.648 255.552 387.072 248.96 398.4 242.24 409.536 235.84 418.112 229.696 423.936 223.488 429.696 216.512 432.64 208.512 432.64c-9.472 0-17.408-3.264-23.744-9.792C178.56 416.256 175.36 409.216 175.36 401.792c0-6.912 1.28-12.16 3.84-15.744 23.616-32.064 48.256-60.032 73.984-83.584C231.616 299.136 212.352 295.36 195.456 291.328 178.496 287.104 160.448 281.216 141.504 273.216c-3.136-1.536-6.144-5.12-9.088-10.624C129.408 257.152 128 252.032 128 247.36c0-8.96 3.264-16.512 9.792-22.528 6.592-6.144 14.08-9.088 22.592-9.088 6.208 0 13.824 1.856 23.104 5.568 9.216 3.776 20.928 9.152 35.2 16.192s30.528 14.912 48.768 23.68c-3.392-16.192-6.144-34.752-8.32-55.616C256.96 184.704 255.872 170.368 255.872 162.624c0-9.472 3.008-17.536 9.024-24.448C270.976 131.392 278.656 128 288.192 128c9.344 0 16.896 3.392 22.912 10.176 6.08 6.848 9.088 15.872 9.088 27.2 0 3.072-0.512 9.152-1.344 18.304-0.832 9.152-2.176 20.096-3.84 33.088C313.344 229.76 311.424 244.608 309.44 261.248zM192 704c-35.392 0-64 28.608-64 64s28.608 64 64 64 64-28.608 64-64S227.392 704 192 704zM708.8 704c-35.392 0-64 28.608-64 64s28.608 64 64 64 64-28.608 64-64S744.192 704 708.8 704zM747.264 590.592c0.64-4.992 0.448-9.856-0.512-14.592 0.128-4.736 0.384-24.896 0.832-35.328 0.576-13.312 35.712-45.056 58.944-66.112 19.456-17.536 41.472-37.504 61.568-59.712 39.04-43.264 48.768-125.312 22.144-186.88C874.368 191.488 831.936 129.92 725.632 128c-60.992 0.832-112.96 17.28-150.72 54.72C511.872 245.056 512 337.344 512 341.184c0.256 24.64 20.224 44.416 44.8 44.416 0.128 0 0.256 0 0.384 0C581.952 385.344 601.792 365.184 601.6 340.416c0-0.576 0.512-58.56 36.224-94.08 20.224-20.032 49.024-30.4 86.144-28.736 42.816 0.768 71.04 16.256 83.968 46.016 14.784 34.176 6.016 77.504-6.4 91.2-17.472 19.392-36.992 36.864-55.104 53.312-44.352 40.064-86.272 78.016-88.384 128.832-1.6 38.336-3.264 90.88 40.32 94.656 1.216 0.128 2.368 0.192 3.52 0.192C724.352 631.744 744.256 613.12 747.264 590.592z" p-id="16982" fill="#bfbfbf"></path></svg>