<?xml version="1.0" standalone="no"?><!DOCTYPE svg PUBLIC "-//W3C//DTD SVG 1.1//EN" "http://www.w3.org/Graphics/SVG/1.1/DTD/svg11.dtd"><svg t="1734675207447" class="icon" viewBox="0 0 1024 1024" version="1.1" xmlns="http://www.w3.org/2000/svg" p-id="51475" xmlns:xlink="http://www.w3.org/1999/xlink" width="16" height="16"><path d="M614.372 54a32 32 0 0 1 28.19 16.857l59.673 111.093H939c17.673 0 32 14.327 32 32 0 17.496-14.042 31.713-31.47 31.996l-0.53 0.004h-74.625V939c0 17.496-14.042 31.713-31.47 31.996l-0.53 0.004h-639.75c-17.673 0-32-14.327-32-32l-0.001-693.05H86c-17.673 0-32-14.327-32-32 0-17.496 14.042-31.713 31.47-31.996l0.53-0.004h236.948l61.03-111.332a32 32 0 0 1 27.593-16.615l0.467-0.003z m186.003 191.95H224.624l0.001 661.05h575.75V245.95zM427.2 395.2c17.496 0 31.713 14.042 31.996 31.47l0.004 0.53v277.225c0 17.673-14.327 32-32 32-17.496 0-31.713-14.042-31.996-31.47l-0.004-0.53V427.2c0-17.673 14.327-32 32-32z m170.6 0c17.496 0 31.713 14.042 31.996 31.47l0.004 0.53v277.225c0 17.673-14.327 32-32 32-17.496 0-31.713-14.042-31.996-31.47l-0.004-0.53V427.2c0-17.673 14.327-32 32-32zM595.236 118H430.988l-35.055 63.95h233.654L595.236 118z" p-id="51476" fill="#cdcdcd"></path></svg>