<?xml version="1.0" standalone="no"?><!DOCTYPE svg PUBLIC "-//W3C//DTD SVG 1.1//EN" "http://www.w3.org/Graphics/SVG/1.1/DTD/svg11.dtd"><svg t="1638878888458" class="icon" viewBox="0 0 1024 1024" version="1.1" xmlns="http://www.w3.org/2000/svg" p-id="5132" xmlns:xlink="http://www.w3.org/1999/xlink" width="16" height="16"><defs><style type="text/css"></style></defs><path d="M876.23 642.47A32 32 0 0 0 864 640H160a32 32 0 0 0 0 64h626.75l-73.25 73.24a32 32 0 0 0 0 45.26 32 32 0 0 0 45.26 0l127.87-127.88a32 32 0 0 0-10.4-52.15zM147.77 381.53a32.18 32.18 0 0 0 12 2.42c0.09 0 0.17 0.05 0.26 0.05H864a32 32 0 0 0 0-64H237.25l73.3-73.3a32 32 0 0 0-45.25-45.25L137.37 329.37a32 32 0 0 0 10.4 52.16z" p-id="5133" fill="#bfbfbf"></path></svg>