<?xml version="1.0" standalone="no"?><!DOCTYPE svg PUBLIC "-//W3C//DTD SVG 1.1//EN" "http://www.w3.org/Graphics/SVG/1.1/DTD/svg11.dtd"><svg t="1731057621723" class="icon" viewBox="0 0 1024 1024" version="1.1" xmlns="http://www.w3.org/2000/svg" p-id="6045" xmlns:xlink="http://www.w3.org/1999/xlink" width="16" height="16"><path d="M264.3 141.6l275.4 179.3 284 184.8c1 0.6 3.6 2.4 3.6 6.7 0 4.3-2.6 6.1-3.6 6.7L539.8 704 264.3 883.3c-0.2-1-0.3-2.1-0.3-3.5V145.1c0-1.3 0.2-2.5 0.3-3.5M262 66.2c-36.5 0-70 32.9-70 78.9v734.6c0 46 33.5 78.9 70 78.9 11.6 0 23.6-3.3 34.8-10.7L579 764.2l284-184.8c48.5-31.6 48.5-102.5 0-134.1L579 260.5 296.9 76.9c-11.3-7.3-23.2-10.7-34.9-10.7z" fill="#cdcdcd" p-id="6046"></path></svg>