<?xml version="1.0" standalone="no"?><!DOCTYPE svg PUBLIC "-//W3C//DTD SVG 1.1//EN" "http://www.w3.org/Graphics/SVG/1.1/DTD/svg11.dtd"><svg t="1734675221376" class="icon" viewBox="0 0 1024 1024" version="1.1" xmlns="http://www.w3.org/2000/svg" p-id="51673" xmlns:xlink="http://www.w3.org/1999/xlink" width="16" height="16"><path d="M731.337 101.671a32.621 32.621 0 0 1 1.188 0.022 31.86 31.86 0 0 1 19.452 7.524l0.075 0.065c0.353 0.299 0.698 0.605 1.037 0.92l0.09 0.084L917.844 264.09A32 32 0 0 1 928 287.476v550.497C928 891.005 885.023 934 832 934H192c-53.023 0-96-42.995-96-96.027V197.699c0-53.032 42.978-96.028 96-96.028l-0.53 0.005 0.53-0.005h539.337z m-464.671 64h-74.719C174.301 165.7 160 180.025 160 197.699v640.274C160 855.664 174.33 870 192 870h640c17.671 0 32-14.335 32-32.027V301.375L718.717 165.671H544.141L544 291.277c0 14.85-7.651 26.99-18.958 34.888l-0.416 0.287-0.83 0.556c-0.418 0.274-0.84 0.543-1.268 0.806-9.233 5.685-20.418 8.597-31.861 8.597H320c-11.443 0-22.628-2.912-31.861-8.597-12.673-7.802-21.472-20.61-21.472-36.537l-0.001-125.606z m245.511 533.59c17.673 0 32 14.326 32 32 0 17.496-14.042 31.712-31.47 31.995l-0.53 0.004h-213.51c-17.673 0-32-14.327-32-32 0-17.496 14.041-31.713 31.47-31.995l0.53-0.005h213.51z m213.156-170.74c17.673 0 32 14.326 32 32 0 17.496-14.041 31.713-31.47 31.995l-0.53 0.005H298.667c-17.673 0-32-14.327-32-32 0-17.497 14.041-31.714 31.47-31.996l0.53-0.004h426.666zM480.141 165.67H330.666V272.41h149.355l0.12-106.739z" p-id="51674" fill="#cdcdcd"></path></svg>