<?xml version="1.0" standalone="no"?><!DOCTYPE svg PUBLIC "-//W3C//DTD SVG 1.1//EN" "http://www.w3.org/Graphics/SVG/1.1/DTD/svg11.dtd"><svg class="icon" width="200px" height="200.00px" viewBox="0 0 1024 1024" version="1.1" xmlns="http://www.w3.org/2000/svg"><path d="M938.666667 853.333333v85.333334H682.666667V512h85.333333v341.333333zM341.333333 512v128a128 128 0 0 1-85.333333 120.533333V938.666667H170.666667v-178.133334A128 128 0 0 1 85.333333 640v-128h85.333334v128a42.666667 42.666667 0 0 0 85.333333 0v-128z m298.666667 0v426.666667h-85.333333V654.293333l-42.666667 56.746667-42.666667-56.746667V938.666667h-85.333333V512h85.333333l42.666667 56.96L554.666667 512z m85.333333-426.666667l213.333334 213.333334v170.666666h-85.333334v-135.253333L689.92 170.666667H170.666667v298.666666H85.333333V85.333333z" /></svg>