<?xml version="1.0" standalone="no"?><!DOCTYPE svg PUBLIC "-//W3C//DTD SVG 1.1//EN" "http://www.w3.org/Graphics/SVG/1.1/DTD/svg11.dtd"><svg t="1639403753870" class="icon" viewBox="0 0 1025 1024" version="1.1" xmlns="http://www.w3.org/2000/svg" p-id="9212" width="16.015625" height="16" xmlns:xlink="http://www.w3.org/1999/xlink"><defs><style type="text/css"></style></defs><path d="M131.339914 423.017198c-9.52111 9.670597-9.400291 25.229558 0.270306 34.750668 9.670597 9.522134 25.229558 9.401315 34.750668-0.269282l320.722863-325.740925 0 798.397108c0 13.5716 11.001648 24.573248 24.573248 24.573248 13.5716 0 24.573248-11.001648 24.573248-24.573248L536.230246 135.522485l315.80719 320.551874c9.523157 9.667525 25.084167 9.783224 34.750668 0.259043 9.667525-9.524181 9.784248-25.083143 0.259043-34.750668L552.305246 81.813557c-11.058985-11.331339-25.865391-17.688643-41.702849-17.905707-0.277473-0.004096-0.554946-0.005119-0.832419-0.005119-15.559985 0-30.237381 5.957989-41.412066 16.831651-0.124914 0.121842-0.249828 0.245732-0.372694 0.370646L131.339914 423.017198z" p-id="9213" fill="#bfbfbf"></path></svg>